<?xml version="1.0" encoding="iso-8859-1"?>
<!-- Generator: Adobe Illustrator 19.0.0, SVG Export Plug-In . SVG Version: 6.00 Build 0)  -->
<svg version="1.1" id="Layer_1" xmlns="http://www.w3.org/2000/svg" xmlns:xlink="http://www.w3.org/1999/xlink" x="0px" y="0px"
	 viewBox="0 0 512 512" style="enable-background:new 0 0 512 512;" xml:space="preserve">
<path style="fill:#FFCE7F;" d="M389.653,456.486l-86.197-159.478V220.19h-94.912v76.819l-86.197,159.478
	c-14.073,26.039-1.372,47.344,28.228,47.344h210.85C391.024,503.83,403.726,482.525,389.653,456.486z"/>
<path style="fill:#7FA339;" d="M209.996,95.822c0,36.347,18.212,68.434,46.004,87.652c27.792-19.219,46.003-51.306,46.003-87.652
	S283.791,27.388,256,8.17C228.208,27.388,209.996,59.475,209.996,95.822z"/>
<path style="fill:#FB5E52;" d="M330.987,416.678c-41.448-41.448-108.527-41.448-149.975,0l-29.44,54.469h208.856L330.987,416.678z"
	/>
<path d="M396.84,452.602l-85.214-157.661v-66.582h2.723c4.512,0,8.17-3.658,8.17-8.17s-3.658-8.17-8.17-8.17h-50.188l-0.001-24.365
	c28.888-21.627,46.012-55.632,46.012-91.832c0-37.647-18.515-72.926-49.527-94.371c-2.795-1.934-6.498-1.934-9.293,0
	c-31.012,21.445-49.527,56.724-49.527,94.371c0,36.193,17.117,70.19,45.994,91.817l0.001,24.38h-50.172
	c-4.512,0-8.17,3.658-8.17,8.17s3.658,8.17,8.17,8.17h2.725v66.582L115.16,452.602c-8.229,15.226-8.973,29.966-2.093,41.505
	c6.878,11.539,20.2,17.894,37.508,17.894h210.85c17.308,0,30.63-6.355,37.509-17.894S405.069,467.828,396.84,452.602z
	 M218.167,95.822c0-30.356,14.042-58.919,37.834-77.514c23.791,18.594,37.832,47.157,37.832,77.514
	c0,26.7-10.867,52.012-29.673,70.374l-0.005-112.675c0-4.512-3.658-8.17-8.171-8.17c-4.512,0-8.169,3.658-8.169,8.17l0.005,112.654
	C229.026,147.814,218.167,122.513,218.167,95.822z M384.899,485.738c-3.814,6.398-12.151,9.921-23.474,9.921h-210.85
	c-11.323,0-19.659-3.523-23.474-9.921c-3.815-6.398-2.951-15.407,2.434-25.367l86.197-159.479c0.645-1.193,0.983-2.528,0.983-3.885
	v-68.648h78.571v68.648c0,1.356,0.338,2.692,0.983,3.885l86.197,159.479C387.849,470.332,388.714,479.341,384.899,485.738z"/>
<path d="M338.175,412.793c-0.376-0.695-0.852-1.333-1.411-1.892c-19.65-19.65-45.176-31.26-72.595-33.19l-0.008-124.842
	c-0.001-4.512-3.658-8.17-8.171-8.169c-4.512,0.001-8.17,3.658-8.169,8.171l0.008,124.841c-27.418,1.929-52.944,13.54-72.594,33.19
	c-0.559,0.559-1.035,1.197-1.411,1.892l-29.44,54.469c-1.368,2.532-1.304,5.597,0.17,8.069c1.474,2.472,4.14,3.986,7.018,3.986
	h32.682c4.512,0,8.17-3.658,8.17-8.17c0-4.512-3.658-8.17-8.17-8.17h-18.979l22.346-41.345
	c18.405-17.983,42.64-27.871,68.378-27.871s49.973,9.888,68.378,27.871l22.346,41.345H216.936c-4.512,0-8.17,3.658-8.17,8.17
	c0,4.512,3.658,8.17,8.17,8.17h143.492c2.878,0,5.544-1.514,7.018-3.986c1.474-2.472,1.538-5.537,0.17-8.069L338.175,412.793z"/>
<g>
</g>
<g>
</g>
<g>
</g>
<g>
</g>
<g>
</g>
<g>
</g>
<g>
</g>
<g>
</g>
<g>
</g>
<g>
</g>
<g>
</g>
<g>
</g>
<g>
</g>
<g>
</g>
<g>
</g>
</svg>
